<svg width="202" height="177" viewBox="0 0 202 177" fill="none" xmlns="http://www.w3.org/2000/svg">
<ellipse cx="102" cy="93.5" rx="100" ry="77.5" fill="#F3F0E9"/>
<path d="M158.007 59.4627C165.281 112.979 111.475 162.685 111.475 162.685C111.475 162.685 46.3552 129.143 39.0817 75.6261C36.9383 59.8556 41.1475 43.8795 50.7833 31.2125C60.4191 18.5455 74.6923 10.225 90.4628 8.08165C106.233 5.93826 122.209 10.1475 134.876 19.7833C147.543 29.4191 155.864 43.6922 158.007 59.4627Z" fill="#154159"/>
<path d="M172.019 63.0095C172.019 117.018 112.009 159.025 112.009 159.025C112.009 159.025 52 117.018 52 63.0095C52 47.094 58.3224 31.8303 69.5764 20.5764C80.8303 9.32241 96.094 3 112.009 3C127.925 3 143.189 9.32241 154.443 20.5764C165.697 31.8303 172.019 47.094 172.019 63.0095Z" fill="url(#paint0_linear_236_485)"/>
<path d="M106.657 83.4226V83.0463C106.699 79.0539 107.117 75.8766 107.911 73.5146C108.705 71.1526 109.834 69.24 111.297 67.7768C112.76 66.3136 114.516 64.9653 116.565 63.7321C117.798 62.9796 118.906 62.0912 119.888 61.0669C120.871 60.0218 121.644 58.8199 122.209 57.4612C122.794 56.1025 123.086 54.5975 123.086 52.9462C123.086 50.8977 122.606 49.121 121.644 47.616C120.683 46.1109 119.397 44.9508 117.788 44.1356C116.178 43.3204 114.391 42.9128 112.426 42.9128C110.712 42.9128 109.061 43.2682 107.472 43.9789C105.883 44.6896 104.556 45.8079 103.49 47.3338C102.424 48.8597 101.807 50.8559 101.64 53.3224H93.7388C93.9061 49.769 94.8258 46.7276 96.498 44.1983C98.1911 41.6691 100.417 39.7356 103.176 38.3978C105.957 37.06 109.04 36.3911 112.426 36.3911C116.105 36.3911 119.303 37.1227 122.02 38.5859C124.759 40.0491 126.87 42.0558 128.354 44.6059C129.859 47.1561 130.611 50.0616 130.611 53.3224C130.611 55.6218 130.256 57.7016 129.545 59.5619C128.856 61.4223 127.852 63.0841 126.535 64.5473C125.239 66.0105 123.672 67.3065 121.832 68.4352C119.993 69.5849 118.519 70.7972 117.411 72.0723C116.303 73.3265 115.499 74.821 114.997 76.556C114.495 78.2909 114.224 80.4544 114.182 83.0463V83.4226H106.657ZM110.67 101.984C109.123 101.984 107.796 101.43 106.688 100.323C105.58 99.2147 105.026 97.8874 105.026 96.3405C105.026 94.7937 105.58 93.4664 106.688 92.3585C107.796 91.2507 109.123 90.6968 110.67 90.6968C112.217 90.6968 113.544 91.2507 114.652 92.3585C115.76 93.4664 116.314 94.7937 116.314 96.3405C116.314 97.3648 116.053 98.3054 115.53 99.1624C115.028 100.019 114.349 100.709 113.492 101.232C112.656 101.733 111.715 101.984 110.67 101.984Z" fill="white"/>
<path d="M13.3303 61.5418C20.5303 63.5418 32.997 56.7084 38.3303 53.0418C43.6636 49.3751 43.4925 55.0123 46.8303 54.542C54.9281 53.401 60.7967 44.8389 58.3303 37.042C56.789 32.1695 53.772 29.3445 48.8303 28.042C44.825 26.9863 39.497 30.8752 38.3303 29.5418C37.1636 28.2085 32.8303 25.6418 24.8303 26.0418C14.8303 26.5418 17.3303 35.0418 13.8303 34.5418C10.3303 34.0418 2.33032 37.0418 0.330322 42.0418C-1.26968 46.0418 3.33031 51.0418 5.83031 53.0418C5.33031 55.0418 6.13031 59.5418 13.3303 61.5418Z" fill="url(#paint1_linear_236_485)"/>
<path d="M133.33 149.542C140.53 151.542 152.997 144.708 158.33 141.042C163.664 137.375 163.493 143.012 166.83 142.542C174.928 141.401 180.797 132.839 178.33 125.042C176.789 120.169 173.772 117.345 168.83 116.042C164.825 114.986 159.497 118.875 158.33 117.542C157.164 116.209 152.83 113.642 144.83 114.042C134.83 114.542 137.33 123.042 133.83 122.542C130.33 122.042 122.33 125.042 120.33 130.042C118.73 134.042 123.33 139.042 125.83 141.042C125.33 143.042 126.13 147.542 133.33 149.542Z" fill="url(#paint2_linear_236_485)"/>
<path d="M69.2351 149.745C69.2351 149.745 76.1643 173.305 107.698 175.847C139.231 178.388 153.046 152.654 153.046 152.654M172 82.7654C172 82.7654 209.807 60.649 192.937 23.5474C182.393 5.99925 161.832 24.5503 161.832 24.5503M40.1046 41.3733C40.1046 41.3733 11.3829 59.5903 13.0717 82.7654C14.7604 105.94 22.0701 109.506 22.0701 109.506" stroke="black" stroke-dasharray="8 8"/>
<defs>
<linearGradient id="paint0_linear_236_485" x1="20.7951" y1="131.72" x2="226.828" y2="60.8966" gradientUnits="userSpaceOnUse">
<stop stop-color="#FC9B5E"/>
<stop offset="1" stop-color="#F9AC72" stop-opacity="0.6"/>
</linearGradient>
<linearGradient id="paint1_linear_236_485" x1="29.4496" y1="26" x2="29.4496" y2="61.9012" gradientUnits="userSpaceOnUse">
<stop stop-color="#E9F8FF"/>
<stop offset="1" stop-color="#F5FCFF" stop-opacity="0.7"/>
</linearGradient>
<linearGradient id="paint2_linear_236_485" x1="149.45" y1="114" x2="149.45" y2="149.901" gradientUnits="userSpaceOnUse">
<stop stop-color="#E9F8FF"/>
<stop offset="1" stop-color="#F5FCFF" stop-opacity="0.7"/>
</linearGradient>
</defs>
</svg>
