<svg width="40" height="40" viewBox="0 0 40 40" fill="none" xmlns="http://www.w3.org/2000/svg">
<rect width="40" height="40" rx="20" fill="#154159"/>
<path d="M31.75 20C31.75 20.1989 31.671 20.3897 31.5303 20.5303C31.3897 20.671 31.1989 20.75 31 20.75H20.75V31C20.75 31.1989 20.671 31.3897 20.5303 31.5303C20.3897 31.671 20.1989 31.75 20 31.75C19.8011 31.75 19.6103 31.671 19.4697 31.5303C19.329 31.3897 19.25 31.1989 19.25 31V20.75H9C8.80109 20.75 8.61032 20.671 8.46967 20.5303C8.32902 20.3897 8.25 20.1989 8.25 20C8.25 19.8011 8.32902 19.6103 8.46967 19.4697C8.61032 19.329 8.80109 19.25 9 19.25H19.25V9C19.25 8.80109 19.329 8.61032 19.4697 8.46967C19.6103 8.32902 19.8011 8.25 20 8.25C20.1989 8.25 20.3897 8.32902 20.5303 8.46967C20.671 8.61032 20.75 8.80109 20.75 9V19.25H31C31.1989 19.25 31.3897 19.329 31.5303 19.4697C31.671 19.6103 31.75 19.8011 31.75 20Z" fill="white"/>
</svg>
