<svg width="32" height="32" viewBox="0 0 32 32" fill="none" xmlns="http://www.w3.org/2000/svg">
<path d="M28.235 3.76497C28.0163 3.54298 27.7418 3.3842 27.4403 3.30543C27.1389 3.22666 26.8218 3.23082 26.5225 3.31747H26.5087L2.51747 10.5962C2.17558 10.6942 1.87164 10.8939 1.64615 11.169C1.42065 11.444 1.28429 11.7812 1.25524 12.1356C1.22619 12.4901 1.30582 12.845 1.48353 13.153C1.66124 13.4611 1.92859 13.7077 2.24997 13.86L12.9512 18.9287C13.0029 18.9541 13.0446 18.9958 13.07 19.0475L18.14 29.75C18.28 30.0496 18.5027 30.303 18.782 30.4802C19.0613 30.6574 19.3855 30.751 19.7162 30.75C19.7662 30.75 19.8175 30.75 19.8675 30.7437C20.2218 30.7159 20.5591 30.58 20.8338 30.3545C21.1085 30.1289 21.3074 29.8246 21.4037 29.4825L28.6787 5.49122V5.47747C28.7658 5.17852 28.7706 4.86159 28.6925 4.56016C28.6144 4.25873 28.4563 3.98399 28.235 3.76497ZM27.235 5.06497L19.9662 29.0537V29.0675C19.9545 29.1176 19.9266 29.1625 19.8868 29.1953C19.8471 29.228 19.7977 29.2468 19.7462 29.2487C19.6946 29.2565 19.6419 29.2466 19.5965 29.2208C19.5512 29.1949 19.5158 29.1546 19.4962 29.1062L14.4962 18.5612L20.5262 12.5312C20.667 12.3905 20.746 12.1996 20.746 12.0006C20.746 11.8016 20.667 11.6107 20.5262 11.47C20.3855 11.3292 20.1946 11.2502 19.9956 11.2502C19.7966 11.2502 19.6057 11.3292 19.465 11.47L13.44 17.5L2.89372 12.5C2.84739 12.4784 2.80878 12.4431 2.78312 12.3989C2.75745 12.3547 2.74595 12.3037 2.75017 12.2527C2.7544 12.2018 2.77414 12.1533 2.80673 12.114C2.83933 12.0746 2.88321 12.0461 2.93247 12.0325H2.94622L26.935 4.75997C26.9771 4.74813 27.0217 4.74793 27.0639 4.75937C27.1062 4.77081 27.1446 4.79348 27.175 4.82497C27.2058 4.85583 27.228 4.89422 27.2394 4.93632C27.2508 4.97842 27.251 5.02277 27.24 5.06497H27.235Z" fill="#154159"/>
</svg>
