<svg width="12" height="12" viewBox="0 0 12 12" fill="none" xmlns="http://www.w3.org/2000/svg">
<path d="M9.75 4.50002C9.74999 3.77433 9.53942 3.06423 9.14383 2.45584C8.74824 1.84746 8.18462 1.36692 7.52133 1.07252C6.85804 0.778116 6.12358 0.682491 5.40702 0.797243C4.69046 0.911995 4.02259 1.23219 3.48441 1.719C2.94622 2.20582 2.56085 2.83832 2.37503 3.53982C2.1892 4.24131 2.21091 4.98166 2.43752 5.67106C2.66413 6.36046 3.0859 6.9693 3.65168 7.42374C4.21746 7.87818 4.90295 8.1587 5.625 8.23127V9.37502H4.125C4.02554 9.37502 3.93016 9.41452 3.85984 9.48485C3.78951 9.55518 3.75 9.65056 3.75 9.75002C3.75 9.84947 3.78951 9.94485 3.85984 10.0152C3.93016 10.0855 4.02554 10.125 4.125 10.125H5.625V11.25C5.625 11.3495 5.66451 11.4449 5.73484 11.5152C5.80516 11.5855 5.90054 11.625 6 11.625C6.09946 11.625 6.19484 11.5855 6.26517 11.5152C6.33549 11.4449 6.375 11.3495 6.375 11.25V10.125H7.875C7.97446 10.125 8.06984 10.0855 8.14017 10.0152C8.21049 9.94485 8.25 9.84947 8.25 9.75002C8.25 9.65056 8.21049 9.55518 8.14017 9.48485C8.06984 9.41452 7.97446 9.37502 7.875 9.37502H6.375V8.23127C7.29954 8.13719 8.15636 7.70362 8.77976 7.01442C9.40316 6.32522 9.74886 5.42933 9.75 4.50002ZM3 4.50002C3 3.90667 3.17595 3.32665 3.50559 2.83331C3.83524 2.33996 4.30377 1.95544 4.85195 1.72838C5.40013 1.50131 6.00333 1.4419 6.58527 1.55766C7.16721 1.67342 7.70176 1.95914 8.12132 2.3787C8.54088 2.79825 8.8266 3.3328 8.94236 3.91475C9.05811 4.49669 8.9987 5.09989 8.77164 5.64807C8.54458 6.19624 8.16006 6.66478 7.66671 6.99442C7.17336 7.32407 6.59334 7.50002 6 7.50002C5.20462 7.49915 4.44206 7.1828 3.87964 6.62038C3.31722 6.05796 3.00087 5.2954 3 4.50002Z" fill="#FC9B5E"/>
</svg>
