<svg width="12" height="12" viewBox="0 0 12 12" fill="none" xmlns="http://www.w3.org/2000/svg">
<path d="M10.125 1.5H7.87499C7.77553 1.5 7.68015 1.53951 7.60983 1.60984C7.5395 1.68016 7.49999 1.77554 7.49999 1.875C7.49999 1.97446 7.5395 2.06984 7.60983 2.14016C7.68015 2.21049 7.77553 2.25 7.87499 2.25H9.21983L7.2478 4.22203C6.50292 3.61316 5.55251 3.31386 4.59315 3.38605C3.63379 3.45823 2.73887 3.89637 2.09348 4.60985C1.44809 5.32334 1.10161 6.25757 1.12569 7.21934C1.14977 8.18111 1.54258 9.09684 2.22286 9.77713C2.90315 10.4574 3.81888 10.8502 4.78065 10.8743C5.74242 10.8984 6.67665 10.5519 7.39014 9.90651C8.10362 9.26112 8.54176 8.3662 8.61394 7.40684C8.68613 6.44748 8.38683 5.49707 7.77796 4.75219L9.74999 2.78062V4.125C9.74999 4.22446 9.7895 4.31984 9.85983 4.39016C9.93015 4.46049 10.0255 4.5 10.125 4.5C10.2244 4.5 10.3198 4.46049 10.3902 4.39016C10.4605 4.31984 10.5 4.22446 10.5 4.125V1.875C10.5 1.77554 10.4605 1.68016 10.3902 1.60984C10.3198 1.53951 10.2244 1.5 10.125 1.5ZM6.99562 9.24797C6.576 9.66739 6.04145 9.95298 5.45955 10.0686C4.87764 10.1843 4.27451 10.1248 3.72641 9.89768C3.17831 9.67058 2.70985 9.28606 2.38027 8.79274C2.05068 8.29942 1.87477 7.71946 1.87477 7.12617C1.87477 6.53289 2.05068 5.95292 2.38027 5.4596C2.70985 4.96628 3.17831 4.58176 3.72641 4.35466C4.27451 4.12756 4.87764 4.06807 5.45955 4.18372C6.04145 4.29936 6.576 4.58495 6.99562 5.00437C7.55737 5.56763 7.87283 6.33067 7.87283 7.12617C7.87283 7.92167 7.55737 8.68471 6.99562 9.24797Z" fill="white"/>
</svg>
