<svg width="35" height="35" viewBox="0 0 35 35" fill="none" xmlns="http://www.w3.org/2000/svg">
<path d="M28.1176 26.5699C28.2192 26.6715 28.2998 26.7922 28.3548 26.925C28.4098 27.0577 28.4381 27.2 28.4381 27.3437C28.4381 27.4875 28.4098 27.6298 28.3548 27.7625C28.2998 27.8953 28.2192 28.016 28.1176 28.1176C28.016 28.2192 27.8953 28.2998 27.7625 28.3548C27.6298 28.4098 27.4875 28.4381 27.3437 28.4381C27.2 28.4381 27.0577 28.4098 26.925 28.3548C26.7922 28.2998 26.6715 28.2192 26.5699 28.1176L17.5 19.0463L8.43008 28.1176C8.22484 28.3228 7.94649 28.4381 7.65625 28.4381C7.36601 28.4381 7.08765 28.3228 6.88242 28.1176C6.67719 27.9123 6.56189 27.634 6.56189 27.3437C6.56189 27.0535 6.67719 26.7752 6.88242 26.5699L15.9537 17.5L6.88242 8.43008C6.67719 8.22484 6.56189 7.94649 6.56189 7.65625C6.56189 7.36601 6.67719 7.08765 6.88242 6.88242C7.08765 6.67719 7.36601 6.56189 7.65625 6.56189C7.94649 6.56189 8.22484 6.67719 8.43008 6.88242L17.5 15.9537L26.5699 6.88242C26.7752 6.67719 27.0535 6.56189 27.3437 6.56189C27.634 6.56189 27.9123 6.67719 28.1176 6.88242C28.3228 7.08765 28.4381 7.36601 28.4381 7.65625C28.4381 7.94649 28.3228 8.22484 28.1176 8.43008L19.0463 17.5L28.1176 26.5699Z" fill="#E9F8FF"/>
</svg>
