<svg width="38" height="38" viewBox="0 0 38 38" fill="none" xmlns="http://www.w3.org/2000/svg">
<path d="M33.5261 15.2623C32.9665 14.6775 32.3876 14.0748 32.1694 13.5449C31.9675 13.0595 31.9556 12.255 31.9438 11.4757C31.9215 10.027 31.8977 8.38523 30.7563 7.24375C29.6148 6.10227 27.973 6.07852 26.5243 6.05625C25.745 6.04437 24.9405 6.0325 24.4551 5.83062C23.9266 5.61242 23.3225 5.03352 22.7377 4.47391C21.7134 3.48977 20.5497 2.375 19 2.375C17.4503 2.375 16.288 3.48977 15.2623 4.47391C14.6775 5.03352 14.0748 5.61242 13.5449 5.83062C13.0625 6.0325 12.255 6.04437 11.4757 6.05625C10.027 6.07852 8.38523 6.10227 7.24375 7.24375C6.10227 8.38523 6.08594 10.027 6.05625 11.4757C6.04437 12.255 6.0325 13.0595 5.83062 13.5449C5.61242 14.0734 5.03352 14.6775 4.47391 15.2623C3.48977 16.2866 2.375 17.4503 2.375 19C2.375 20.5497 3.48977 21.712 4.47391 22.7377C5.03352 23.3225 5.61242 23.9252 5.83062 24.4551C6.0325 24.9405 6.04437 25.745 6.05625 26.5243C6.07852 27.973 6.10227 29.6148 7.24375 30.7563C8.38523 31.8977 10.027 31.9215 11.4757 31.9438C12.255 31.9556 13.0595 31.9675 13.5449 32.1694C14.0734 32.3876 14.6775 32.9665 15.2623 33.5261C16.2866 34.5102 17.4503 35.625 19 35.625C20.5497 35.625 21.712 34.5102 22.7377 33.5261C23.3225 32.9665 23.9252 32.3876 24.4551 32.1694C24.9405 31.9675 25.745 31.9556 26.5243 31.9438C27.973 31.9215 29.6148 31.8977 30.7563 30.7563C31.8977 29.6148 31.9215 27.973 31.9438 26.5243C31.9556 25.745 31.9675 24.9405 32.1694 24.4551C32.3876 23.9266 32.9665 23.3225 33.5261 22.7377C34.5102 21.7134 35.625 20.5497 35.625 19C35.625 17.4503 34.5102 16.288 33.5261 15.2623ZM17.8125 11.875C17.8125 11.5601 17.9376 11.258 18.1603 11.0353C18.383 10.8126 18.6851 10.6875 19 10.6875C19.3149 10.6875 19.617 10.8126 19.8397 11.0353C20.0624 11.258 20.1875 11.5601 20.1875 11.875V20.1875C20.1875 20.5024 20.0624 20.8045 19.8397 21.0272C19.617 21.2499 19.3149 21.375 19 21.375C18.6851 21.375 18.383 21.2499 18.1603 21.0272C17.9376 20.8045 17.8125 20.5024 17.8125 20.1875V11.875ZM19 27.3125C18.6477 27.3125 18.3033 27.208 18.0104 27.0123C17.7175 26.8166 17.4892 26.5384 17.3543 26.2129C17.2195 25.8874 17.1842 25.5293 17.253 25.1837C17.3217 24.8382 17.4914 24.5208 17.7405 24.2717C17.9896 24.0226 18.307 23.853 18.6525 23.7842C18.998 23.7155 19.3562 23.7508 19.6817 23.8856C20.0071 24.0204 20.2853 24.2487 20.4811 24.5416C20.6768 24.8346 20.7812 25.179 20.7812 25.5312C20.7812 26.0037 20.5936 26.4567 20.2595 26.7908C19.9255 27.1248 19.4724 27.3125 19 27.3125Z" fill="#E9F8FF"/>
</svg>
