<svg width="12" height="12" viewBox="0 0 12 12" fill="none" xmlns="http://www.w3.org/2000/svg">
<path d="M10.125 3H8.25C8.25 2.40326 8.01295 1.83097 7.59099 1.40901C7.16903 0.987053 6.59674 0.75 6 0.75C5.40326 0.75 4.83097 0.987053 4.40901 1.40901C3.98705 1.83097 3.75 2.40326 3.75 3H1.875C1.67609 3 1.48532 3.07902 1.34467 3.21967C1.20402 3.36032 1.125 3.55109 1.125 3.75V9.375C1.125 9.57391 1.20402 9.76468 1.34467 9.90533C1.48532 10.046 1.67609 10.125 1.875 10.125H10.125C10.3239 10.125 10.5147 10.046 10.6553 9.90533C10.796 9.76468 10.875 9.57391 10.875 9.375V3.75C10.875 3.55109 10.796 3.36032 10.6553 3.21967C10.5147 3.07902 10.3239 3 10.125 3ZM6 1.5C6.39782 1.5 6.77936 1.65804 7.06066 1.93934C7.34196 2.22064 7.5 2.60218 7.5 3H4.5C4.5 2.60218 4.65804 2.22064 4.93934 1.93934C5.22064 1.65804 5.60218 1.5 6 1.5ZM10.125 9.375H1.875V3.75H10.125V9.375Z" fill="white"/>
</svg>
